{
  "accessors": [
    {
      "bufferView": 2,
      "componentType": 5126,
      "count": 789,
      "max": [
        1.2595523595809937,
        1,
        1.2595524787902832
      ],
      "min": [
        -1.2595525979995728,
        -1.0518275499343872,
        -1.2595529556274414
      ],
      "type": "VEC3"
    },
    {
      "bufferView": 2,
      "byteOffset": 9468,
      "componentType": 5126,
      "count": 789,
      "max": [
        1,
        1,
        1
      ],
      "min": [
        -1,
        -1,
        -1
      ],
      "type": "VEC3"
    },
    {
      "bufferView": 1,
      "componentType": 5126,
      "count": 789,
      "max": [
        0.65625,
        0.99235260486602783
      ],
      "min": [
        -0,
        -7.4505805969238281e-08
      ],
      "type": "VEC2"
    },
    {
      "bufferView": 0,
      "componentType": 5125,
      "count": 2718,
      "max": [
        788
      ],
      "min": [
        0
      ],
      "type": "SCALAR"
    },
    {
      "bufferView": 2,
      "byteOffset": 18936,
      "componentType": 5126,
      "count": 24,
      "max": [
        0.5,
        0.5,
        0.5
      ],
      "min": [
        -0.5,
        -0.5,
        -0.5
      ],
      "type": "VEC3"
    },
    {
      "bufferView": 2,
      "byteOffset": 19224,
      "componentType": 5126,
      "count": 24,
      "max": [
        1,
        1,
        1
      ],
      "min": [
        -1,
        -1,
        -1
      ],
      "type": "VEC3"
    },
    {
      "bufferView": 1,
      "byteOffset": 6312,
      "componentType": 5126,
      "count": 24,
      "max": [
        0.875,
        1
      ],
      "min": [
        0.125,
        0
      ],
      "type": "VEC2"
    },
    {
      "bufferView": 0,
      "byteOffset": 10872,
      "componentType": 5125,
      "count": 36,
      "max": [
        23
      ],
      "min": [
        0
      ],
      "type": "SCALAR"
    },
    {
      "bufferView": 2,
      "byteOffset": 19512,
      "componentType": 5126,
      "count": 70,
      "max": [
        3.2216050624847412,
        0.72640103101730347,
        0.5
      ],
      "min": [
        -1.3837957382202148,
        -0.73961013555526733,
        -0.5
      ],
      "type": "VEC3"
    },
    {
      "bufferView": 2,
      "byteOffset": 20352,
      "componentType": 5126,
      "count": 70,
      "max": [
        1,
        0.98199164867401123,
        0.99843126535415649
      ],
      "min": [
        -1,
        -0.98107588291168213,
        -1
      ],
      "type": "VEC3"
    },
    {
      "bufferView": 1,
      "byteOffset": 6504,
      "componentType": 5126,
      "count": 70,
      "max": [
        0.875,
        1
      ],
      "min": [
        0.125,
        0
      ],
      "type": "VEC2"
    },
    {
      "bufferView": 0,
      "byteOffset": 11016,
      "componentType": 5125,
      "count": 132,
      "max": [
        69
      ],
      "min": [
        0
      ],
      "type": "SCALAR"
    },
    {
      "bufferView": 2,
      "byteOffset": 21192,
      "componentType": 5126,
      "count": 24,
      "max": [
        -12.365914344787598,
        2.6840605735778809,
        -0.26613324880599976
      ],
      "min": [
        -24.919509887695312,
        1.5724129676818848,
        -3.0615015029907227
      ],
      "type": "VEC3"
    },
    {
      "bufferView": 2,
      "byteOffset": 21480,
      "componentType": 5126,
      "count": 24,
      "max": [
        0.99930876493453979,
        0.98302948474884033,
        0.97555726766586304
      ],
      "min": [
        -0.690726637840271,
        -0.98535388708114624,
        -0.96806627511978149
      ],
      "type": "VEC3"
    },
    {
      "bufferView": 1,
      "byteOffset": 7064,
      "componentType": 5126,
      "count": 24,
      "max": [
        0.875,
        1
      ],
      "min": [
        0.125,
        0
      ],
      "type": "VEC2"
    },
    {
      "bufferView": 0,
      "byteOffset": 11544,
      "componentType": 5125,
      "count": 36,
      "max": [
        23
      ],
      "min": [
        0
      ],
      "type": "SCALAR"
    },
    {
      "bufferView": 2,
      "byteOffset": 21768,
      "componentType": 5126,
      "count": 24,
      "max": [
        -12.365914344787598,
        4.7054610252380371,
        0.96459251642227173
      ],
      "min": [
        -24.919509887695312,
        1.9395838975906372,
        -0.19637390971183777
      ],
      "type": "VEC3"
    },
    {
      "bufferView": 2,
      "byteOffset": 22056,
      "componentType": 5126,
      "count": 24,
      "max": [
        0.99930876493453979,
        0.96942144632339478,
        0.9810301661491394
      ],
      "min": [
        -0.6882551908493042,
        -0.97679007053375244,
        -0.98350340127944946
      ],
      "type": "VEC3"
    },
    {
      "bufferView": 1,
      "byteOffset": 7256,
      "componentType": 5126,
      "count": 24,
      "max": [
        0.875,
        1
      ],
      "min": [
        0.125,
        0
      ],
      "type": "VEC2"
    },
    {
      "bufferView": 0,
      "byteOffset": 11688,
      "componentType": 5125,
      "count": 36,
      "max": [
        23
      ],
      "min": [
        0
      ],
      "type": "SCALAR"
    },
    {
      "bufferView": 2,
      "byteOffset": 22344,
      "componentType": 5126,
      "count": 24,
      "max": [
        -12.365914344787598,
        1.6417711973190308,
        0.15123251080513
      ],
      "min": [
        -24.919509887695312,
        -1.1471521854400635,
        -0.90803337097167969
      ],
      "type": "VEC3"
    },
    {
      "bufferView": 2,
      "byteOffset": 22632,
      "componentType": 5126,
      "count": 24,
      "max": [
        0.99930876493453979,
        0.98203647136688232,
        0.98914331197738647
      ],
      "min": [
        -0.68953114748001099,
        -0.9744839072227478,
        -0.98713237047195435
      ],
      "type": "VEC3"
    },
    {
      "bufferView": 1,
      "byteOffset": 7448,
      "componentType": 5126,
      "count": 24,
      "max": [
        0.875,
        1
      ],
      "min": [
        0.125,
        0
      ],
      "type": "VEC2"
    },
    {
      "bufferView": 0,
      "byteOffset": 11832,
      "componentType": 5125,
      "count": 36,
      "max": [
        23
      ],
      "min": [
        0
      ],
      "type": "SCALAR"
    },
    {
      "bufferView": 2,
      "byteOffset": 22920,
      "componentType": 5126,
      "count": 24,
      "max": [
        -12.365914344787598,
        2.0861327648162842,
        2.8884367942810059
      ],
      "min": [
        -24.919509887695312,
        0.9258536696434021,
        0.089261829853057861
      ],
      "type": "VEC3"
    },
    {
      "bufferView": 2,
      "byteOffset": 23208,
      "componentType": 5126,
      "count": 24,
      "max": [
        0.99931740760803223,
        0.98454862833023071,
        0.97145998477935791
      ],
      "min": [
        -0.69255727529525757,
        -0.98215746879577637,
        -0.97922950983047485
      ],
      "type": "VEC3"
    },
    {
      "bufferView": 1,
      "byteOffset": 7640,
      "componentType": 5126,
      "count": 24,
      "max": [
        0.875,
        1
      ],
      "min": [
        0.125,
        0
      ],
      "type": "VEC2"
    },
    {
      "bufferView": 0,
      "byteOffset": 11976,
      "componentType": 5125,
      "count": 36,
      "max": [
        23
      ],
      "min": [
        0
      ],
      "type": "SCALAR"
    },
    {
      "bufferView": 2,
      "byteOffset": 23496,
      "componentType": 5126,
      "count": 84,
      "max": [
        1,
        1,
        1.0000001192092896
      ],
      "min": [
        -1.0000002384185791,
        -1,
        -1.0000004768371582
      ],
      "type": "VEC3"
    },
    {
      "bufferView": 2,
      "byteOffset": 24504,
      "componentType": 5126,
      "count": 84,
      "max": [
        1,
        1,
        1
      ],
      "min": [
        -1,
        -1,
        -1
      ],
      "type": "VEC3"
    },
    {
      "bufferView": 1,
      "byteOffset": 7832,
      "componentType": 5126,
      "count": 84,
      "max": [
        0.65625,
        1
      ],
      "min": [
        0.34374997019767761,
        -7.4505805969238281e-08
      ],
      "type": "VEC2"
    },
    {
      "bufferView": 0,
      "byteOffset": 12120,
      "componentType": 5125,
      "count": 240,
      "max": [
        83
      ],
      "min": [
        0
      ],
      "type": "SCALAR"
    }
  ],
  "asset": {
    "extras": {
      "author": "Gwappa (https://sketchfab.com/Gwappa)",
      "license": "CC-BY-4.0 (http://creativecommons.org/licenses/by/4.0/)",
      "source": "https://sketchfab.com/3d-models/arrow-c46f8feb96044a95967feee111488e03",
      "title": "Arrow"
    },
    "generator": "Sketchfab-9.60.0",
    "version": "2.0"
  },
  "bufferViews": [
    {
      "buffer": 0,
      "byteLength": 13080,
      "byteOffset": 0,
      "name": "floatBufferViews",
      "target": 34963
    },
    {
      "buffer": 0,
      "byteLength": 8504,
      "byteOffset": 13080,
      "byteStride": 8,
      "name": "floatBufferViews",
      "target": 34962
    },
    {
      "buffer": 0,
      "byteLength": 25512,
      "byteOffset": 21584,
      "byteStride": 12,
      "name": "floatBufferViews",
      "target": 34962
    }
  ],
  "buffers": [
    {
      "byteLength": 47096,
      "uri": "scene.bin"
    }
  ],
  "extensionsRequired": [
    "KHR_materials_pbrSpecularGlossiness"
  ],
  "extensionsUsed": [
    "KHR_materials_pbrSpecularGlossiness"
  ],
  "images": [
    {
      "uri": "textures/blinn1_diffuse.png"
    },
    {
      "uri": "textures/blinn2_diffuse.png"
    },
    {
      "uri": "textures/blinn2_specularGlossiness.png"
    }
  ],
  "materials": [
    {
      "doubleSided": true,
      "emissiveFactor": [
        0,
        0,
        0
      ],
      "extensions": {
        "KHR_materials_pbrSpecularGlossiness": {
          "diffuseFactor": [
            0.32941455873246805,
            0.32941455873246805,
            0.32941455873246805,
            1
          ],
          "diffuseTexture": {
            "index": 0,
            "texCoord": 0
          },
          "glossinessFactor": 0.079251618375051722,
          "specularFactor": [
            0,
            0,
            0
          ]
        }
      },
      "name": "blinn1"
    },
    {
      "doubleSided": true,
      "emissiveFactor": [
        0,
        0,
        0
      ],
      "extensions": {
        "KHR_materials_pbrSpecularGlossiness": {
          "diffuseFactor": [
            0.11091757520471289,
            0.11091757520471289,
            0.11091757520471289,
            1
          ],
          "diffuseTexture": {
            "index": 1,
            "texCoord": 0
          },
          "glossinessFactor": 1,
          "specularFactor": [
            0.59646642748861334,
            0.59646642748861334,
            0.59646642748861334
          ],
          "specularGlossinessTexture": {
            "index": 2,
            "texCoord": 0
          }
        }
      },
      "name": "blinn2"
    },
    {
      "doubleSided": true,
      "extensions": {
        "KHR_materials_pbrSpecularGlossiness": {
          "diffuseFactor": [
            0.1155971864115343,
            0.015970422618719581,
            0.015970422618719581,
            1
          ],
          "glossinessFactor": 1,
          "specularFactor": [
            0,
            0,
            0
          ],
          "specularGlossinessTexture": {
            "index": 2,
            "texCoord": 0
          }
        }
      },
      "name": "blinn3"
    }
  ],
  "meshes": [
    {
      "name": "pCylinder1_blinn1_0",
      "primitives": [
        {
          "attributes": {
            "NORMAL": 1,
            "POSITION": 0,
            "TEXCOORD_0": 2
          },
          "indices": 3,
          "material": 0,
          "mode": 4
        }
      ]
    },
    {
      "name": "pCube1_blinn2_0",
      "primitives": [
        {
          "attributes": {
            "NORMAL": 5,
            "POSITION": 4,
            "TEXCOORD_0": 6
          },
          "indices": 7,
          "material": 1,
          "mode": 4
        }
      ]
    },
    {
      "name": "pCube2_blinn2_0",
      "primitives": [
        {
          "attributes": {
            "NORMAL": 9,
            "POSITION": 8,
            "TEXCOORD_0": 10
          },
          "indices": 11,
          "material": 1,
          "mode": 4
        }
      ]
    },
    {
      "name": "polySurface3_blinn3_0",
      "primitives": [
        {
          "attributes": {
            "NORMAL": 13,
            "POSITION": 12,
            "TEXCOORD_0": 14
          },
          "indices": 15,
          "material": 2,
          "mode": 4
        }
      ]
    },
    {
      "name": "polySurface4_blinn3_0",
      "primitives": [
        {
          "attributes": {
            "NORMAL": 17,
            "POSITION": 16,
            "TEXCOORD_0": 18
          },
          "indices": 19,
          "material": 2,
          "mode": 4
        }
      ]
    },
    {
      "name": "polySurface5_blinn3_0",
      "primitives": [
        {
          "attributes": {
            "NORMAL": 21,
            "POSITION": 20,
            "TEXCOORD_0": 22
          },
          "indices": 23,
          "material": 2,
          "mode": 4
        }
      ]
    },
    {
      "name": "polySurface6_blinn3_0",
      "primitives": [
        {
          "attributes": {
            "NORMAL": 25,
            "POSITION": 24,
            "TEXCOORD_0": 26
          },
          "indices": 27,
          "material": 2,
          "mode": 4
        }
      ]
    },
    {
      "name": "pCylinder2_blinn2_0",
      "primitives": [
        {
          "attributes": {
            "NORMAL": 29,
            "POSITION": 28,
            "TEXCOORD_0": 30
          },
          "indices": 31,
          "material": 1,
          "mode": 4
        }
      ]
    }
  ],
  "nodes": [
    {
      "children": [
        1
      ],
      "name": "RootNode (gltf orientation matrix)",
      "rotation": [
        -0.70710678118654746,
        -0,
        -0,
        0.70710678118654757
      ]
    },
    {
      "children": [
        2
      ],
      "name": "RootNode (model correction matrix)"
    },
    {
      "children": [
        3
      ],
      "matrix": [
        1,
        0,
        0,
        0,
        0,
        0,
        1,
        0,
        0,
        -1,
        0,
        0,
        0,
        0,
        0,
        1
      ],
      "name": "46e50b5b92b3449b88341d8f3e1bc2c3.fbx"
    },
    {
      "children": [
        4,
        6,
        8,
        10,
        19
      ],
      "name": "RootNode"
    },
    {
      "children": [
        5
      ],
      "matrix": [
        1.5396016279917965e-16,
        0.69337493181228638,
        0,
        0,
        -30.43641471862793,
        6.7582416815321466e-15,
        0,
        0,
        0,
        0,
        0.66731357574462891,
        0,
        0,
        1.7922120094299316,
        -5.9488971970722559e-08,
        1
      ],
      "name": "pCylinder1"
    },
    {
      "mesh": 0,
      "name": "pCylinder1_blinn1_0"
    },
    {
      "children": [
        7
      ],
      "matrix": [
        1.6144723892211914,
        0,
        0,
        0,
        0,
        1.6144723892211914,
        0,
        0,
        0,
        0,
        1.6144723892211914,
        0,
        32.193515777587891,
        1.8308279514312744,
        0,
        1
      ],
      "name": "pCube1"
    },
    {
      "mesh": 1,
      "name": "pCube1_blinn2_0"
    },
    {
      "children": [
        9
      ],
      "matrix": [
        2.0658903121948242,
        0,
        0,
        0,
        0,
        1.5911571979522705,
        0,
        0,
        0,
        0,
        6.1131420135498047,
        0,
        33.228187561035156,
        1.8308279514312744,
        0,
        1
      ],
      "name": "pCube2"
    },
    {
      "mesh": 2,
      "name": "pCube2_blinn2_0"
    },
    {
      "children": [
        11,
        13,
        15,
        17
      ],
      "matrix": [
        1.2293007373809814,
        0,
        0,
        0,
        0,
        0.95256077641442805,
        0.77705100872604671,
        0,
        0,
        -0.77705100872604671,
        0.95256077641442805,
        0,
        0.76002120971679688,
        0.023590408265590668,
        -1.4208287000656128,
        1
      ],
      "name": "pCube7"
    },
    {
      "children": [
        12
      ],
      "name": "polySurface3"
    },
    {
      "mesh": 3,
      "name": "polySurface3_blinn3_0"
    },
    {
      "children": [
        14
      ],
      "name": "polySurface4"
    },
    {
      "mesh": 4,
      "name": "polySurface4_blinn3_0"
    },
    {
      "children": [
        16
      ],
      "name": "polySurface5"
    },
    {
      "mesh": 5,
      "name": "polySurface5_blinn3_0"
    },
    {
      "children": [
        18
      ],
      "name": "polySurface6"
    },
    {
      "mesh": 6,
      "name": "polySurface6_blinn3_0"
    },
    {
      "children": [
        20
      ],
      "matrix": [
        1.6776617779960411e-16,
        0.75555169582366943,
        0,
        0,
        -0.75555169582366943,
        1.6776617779960411e-16,
        0,
        0,
        0,
        0,
        0.75555169582366943,
        0,
        -11.919704437255859,
        1.8069130182266235,
        0,
        1
      ],
      "name": "pCylinder2"
    },
    {
      "mesh": 7,
      "name": "pCylinder2_blinn2_0"
    }
  ],
  "samplers": [
    {
      "magFilter": 9729,
      "minFilter": 9987,
      "wrapS": 10497,
      "wrapT": 10497
    }
  ],
  "scene": 0,
  "scenes": [
    {
      "name": "OSG_Scene",
      "nodes": [
        0
      ]
    }
  ],
  "textures": [
    {
      "sampler": 0,
      "source": 0
    },
    {
      "sampler": 0,
      "source": 1
    },
    {
      "sampler": 0,
      "source": 2
    }
  ]
}

